<svg width="21" height="24" viewBox="0 0 21 24" fill="none" xmlns="http://www.w3.org/2000/svg">
<path d="M10.8295 11.5609C12.4177 11.5609 13.7928 10.9913 14.9167 9.86735C16.0403 8.74364 16.6101 7.3687 16.6101 5.78026C16.6101 4.19237 16.0404 2.81726 14.9165 1.69317C13.7926 0.56964 12.4175 0 10.8295 0C9.24102 0 7.86608 0.56964 6.74237 1.69336C5.61865 2.81707 5.04883 4.19219 5.04883 5.78026C5.04883 7.3687 5.61865 8.74382 6.74237 9.86753C7.86645 10.9911 9.24157 11.5609 10.8295 11.5609ZM7.73699 2.6878C8.59924 1.82556 9.61071 1.40643 10.8295 1.40643C12.048 1.40643 13.0597 1.82556 13.9221 2.6878C14.7843 3.55023 15.2037 4.56188 15.2037 5.78026C15.2037 6.99901 14.7843 8.01048 13.9221 8.87291C13.0597 9.73533 12.048 10.1545 10.8295 10.1545C9.61108 10.1545 8.5996 9.73515 7.73699 8.87291C6.87457 8.01067 6.45526 6.99901 6.45526 5.78026C6.45526 4.56188 6.87457 3.55023 7.73699 2.6878Z" fill="#68E29F"/>
<path d="M20.9435 18.4546C20.9111 17.987 20.8455 17.4769 20.749 16.9382C20.6516 16.3954 20.5262 15.8824 20.3761 15.4134C20.2208 14.9288 20.01 14.4501 19.7491 13.9915C19.4787 13.5154 19.1608 13.1008 18.8041 12.7597C18.4311 12.4028 17.9745 12.1159 17.4464 11.9066C16.9201 11.6984 16.3369 11.593 15.7131 11.593C15.4681 11.593 15.2312 11.6935 14.7736 11.9914C14.492 12.175 14.1626 12.3874 13.7949 12.6224C13.4805 12.8227 13.0546 13.0104 12.5285 13.1803C12.0153 13.3464 11.4942 13.4306 10.9797 13.4306C10.4655 13.4306 9.94438 13.3464 9.43077 13.1803C8.90526 13.0106 8.47917 12.8229 8.16533 12.6226C7.80113 12.3898 7.47155 12.1774 7.18572 11.9912C6.7285 11.6933 6.49157 11.5928 6.24657 11.5928C5.62255 11.5928 5.03954 11.6984 4.51348 11.9068C3.98577 12.1157 3.52893 12.4026 3.15557 12.7599C2.79889 13.1012 2.48102 13.5156 2.21075 13.9915C1.95019 14.4501 1.73926 14.9286 1.58398 15.4136C1.43402 15.8826 1.30859 16.3954 1.21118 16.9382C1.1145 17.4761 1.04913 17.9864 1.01672 18.4552C0.984863 18.9135 0.96875 19.3905 0.96875 19.8724C0.96875 21.1252 1.367 22.1394 2.15234 22.8874C2.92797 23.6255 3.9541 23.9998 5.20232 23.9998H16.7585C18.0063 23.9998 19.0324 23.6255 19.8083 22.8874C20.5938 22.14 20.992 21.1254 20.992 19.8722C20.9918 19.3887 20.9755 18.9117 20.9435 18.4546ZM18.8385 21.8684C18.326 22.3562 17.6456 22.5934 16.7583 22.5934H5.20232C4.31481 22.5934 3.63439 22.3562 3.12207 21.8686C2.61944 21.3902 2.37518 20.737 2.37518 19.8724C2.37518 19.4227 2.39001 18.9787 2.41967 18.5524C2.44861 18.1342 2.50775 17.6748 2.59546 17.1866C2.68206 16.7045 2.79229 16.2521 2.9234 15.8425C3.04919 15.4497 3.22076 15.0608 3.43353 14.6862C3.63659 14.3291 3.87023 14.0228 4.12805 13.7759C4.3692 13.545 4.67315 13.3561 5.0313 13.2144C5.36254 13.0832 5.73479 13.0115 6.13891 13.0007C6.18816 13.0269 6.27587 13.0768 6.41796 13.1695C6.70708 13.3579 7.04033 13.5729 7.40874 13.8082C7.82402 14.0729 8.35906 14.3121 8.99828 14.5184C9.65178 14.7297 10.3183 14.837 10.9798 14.837C11.6414 14.837 12.3081 14.7297 12.9612 14.5186C13.601 14.3119 14.1358 14.0729 14.5517 13.8078C14.9287 13.5668 15.2526 13.3581 15.5417 13.1695C15.6838 13.077 15.7715 13.0269 15.8208 13.0007C16.2251 13.0115 16.5973 13.0832 16.9287 13.2144C17.2867 13.3561 17.5907 13.5452 17.8318 13.7759C18.0896 14.0226 18.3233 14.3289 18.5263 14.6863C18.7393 15.0608 18.911 15.4499 19.0366 15.8423C19.1679 16.2524 19.2783 16.7047 19.3648 17.1865C19.4523 17.6755 19.5116 18.1351 19.5406 18.5526V18.553C19.5704 18.9776 19.5854 19.4214 19.5856 19.8724C19.5854 20.7372 19.3412 21.3902 18.8385 21.8684Z" fill="#68E29F"/>
</svg>
